<?xml version="1.0" encoding="UTF-8" standalone="no"?>
<svg width="22px" height="23px" viewBox="0 0 22 23" version="1.1" xmlns="http://www.w3.org/2000/svg" xmlns:xlink="http://www.w3.org/1999/xlink" xmlns:sketch="http://www.bohemiancoding.com/sketch/ns">
    <!-- Generator: Sketch 3.3 (11970) - http://www.bohemiancoding.com/sketch -->
    <title>Fill 1 Copy</title>
    <desc>Created with Sketch.</desc>
    <defs></defs>
    <g id="Page-1" stroke="none" stroke-width="1" fill="none" fill-rule="evenodd" sketch:type="MSPage">
        <g id="GEN/I_MENU_TEMPORAL-Copy" sketch:type="MSArtboardGroup" transform="translate(-865.000000, -82.000000)" fill="#61A0D6">
            <path d="M885.96925,99.5837496 C884.213737,99.5837496 882.900362,94.7632621 882.522566,91.3196219 C882.50822,88.7115677 880.921824,86.4713105 878.665481,85.4931271 C878.682001,85.3887875 878.698087,85.2657538 878.698087,85.1279386 C878.698087,83.7137029 877.547308,82.5633593 876.133507,82.5633593 C874.719272,82.5633593 873.568928,83.7137029 873.568928,85.1279386 C873.568928,85.2648843 873.584144,85.3857443 873.601099,85.4935618 C871.345191,86.4717452 869.758795,88.7124372 869.744014,91.3200567 C869.363174,94.7632621 868.047192,99.5837496 866.297765,99.5837496 C865.937794,99.5837496 865.645643,99.8759004 865.645643,100.235872 C865.645643,100.595843 865.937794,100.887994 866.297765,100.887994 L872.298159,100.887994 C872.419019,102.900878 874.090191,104.50336 876.133507,104.50336 C878.176389,104.50336 879.847996,102.900878 879.968856,100.887994 L885.96925,100.887994 C886.329221,100.887994 886.621372,100.595843 886.621372,100.235872 C886.621372,99.8759004 886.329221,99.5837496 885.96925,99.5837496 L885.96925,99.5837496 Z M876.133507,83.8676037 C876.816497,83.8676037 877.370801,84.4140822 877.38993,85.0922893 C876.98344,85.0109914 876.563473,84.9670818 876.133507,84.9670818 C875.703541,84.9670818 875.28314,85.0109914 874.87665,85.0922893 C874.895779,84.4140822 875.450953,83.8676037 876.133507,83.8676037 L876.133507,83.8676037 Z M876.133507,103.199115 C874.809699,103.199115 873.719786,102.181805 873.602404,100.887994 L878.664611,100.887994 C878.546794,102.181805 877.457316,103.199115 876.133507,103.199115 L876.133507,103.199115 Z M868.547152,99.5837496 C870.311795,97.2761064 870.916964,92.6034332 871.044345,91.4270047 L871.048258,91.3561408 C871.048258,88.5524499 873.329382,86.2713263 876.133507,86.2713263 C878.937198,86.2713263 881.218322,88.5524499 881.218322,91.3561408 L881.222235,91.42657 C881.348746,92.6029985 881.952177,97.2756717 883.717254,99.5837496 L868.547152,99.5837496 L868.547152,99.5837496 Z" id="Fill-1-Copy" sketch:type="MSShapeGroup"></path>
        </g>
    </g>
</svg>