<?xml version="1.0" encoding="UTF-8" standalone="no"?>
<svg width="22px" height="22px" viewBox="0 0 22 22" version="1.1" xmlns="http://www.w3.org/2000/svg" xmlns:xlink="http://www.w3.org/1999/xlink" xmlns:sketch="http://www.bohemiancoding.com/sketch/ns">
    <!-- Generator: Sketch 3.3 (11970) - http://www.bohemiancoding.com/sketch -->
    <title>Imported Layers</title>
    <desc>Created with Sketch.</desc>
    <defs></defs>
    <g id="Page-1" stroke="none" stroke-width="1" fill="none" fill-rule="evenodd" sketch:type="MSPage">
        <g id="GEN/I_MENU_TEMPORAL-Copy" sketch:type="MSArtboardGroup" transform="translate(-979.000000, -82.000000)" stroke="#61A0D6" stroke-width="1.3" stroke-linecap="round" stroke-linejoin="round">
            <path d="M990.091,95.973 L989.549,95.973 C987.306,95.973 986.286,95.089 985.931,92.799 L985.487,87.061 C985.487,84.818 987.306,83 989.549,83 L990.091,83 C992.334,83 994.153,84.818 994.153,87.061 L993.709,92.799 C993.438,95.033 992.334,95.973 990.091,95.973 L990.091,95.973 Z M985.3,93.816 C982.373,93.816 980,96.188 980,99.115 L980,103.298 L999.639,103.298 L999.639,99.115 C999.639,96.188 997.267,93.816 994.34,93.816" id="Imported-Layers" sketch:type="MSShapeGroup"></path>
        </g>
    </g>
</svg>