<?xml version="1.0" encoding="UTF-8" standalone="no"?>
<svg width="37px" height="19px" viewBox="0 0 37 19" version="1.1" xmlns="http://www.w3.org/2000/svg" xmlns:xlink="http://www.w3.org/1999/xlink" xmlns:sketch="http://www.bohemiancoding.com/sketch/ns">
    <!-- Generator: Sketch 3.3 (11970) - http://www.bohemiancoding.com/sketch -->
    <title>Fill 2</title>
    <desc>Created with Sketch.</desc>
    <defs></defs>
    <g id="Page-1" stroke="none" stroke-width="1" fill="none" fill-rule="evenodd" sketch:type="MSPage">
        <g id="GEN/I_MENU_TEMPORAL-Copy" sketch:type="MSArtboardGroup" transform="translate(-734.000000, -84.000000)" fill="#61A0D6">
            <path d="M751.457615,93.2658098 C750.136097,96.9094076 748.770075,100.677618 746.445377,100.677618 C744.122773,100.677618 742.757275,96.9094076 741.437328,93.2658098 C739.932557,89.112768 738.376475,84.8183594 734.952258,84.8183594 C734.518733,84.8183594 734.166887,85.1702056 734.166887,85.6037304 C734.166887,86.0372552 734.518733,86.3891014 734.952258,86.3891014 C737.274862,86.3891014 738.64036,90.1567878 739.96083,93.8009092 C741.465078,97.9539511 743.021159,102.24836 746.445377,102.24836 C749.871165,102.24836 751.428294,97.9544747 752.934112,93.8014328 C754.255106,90.1573114 755.621652,86.3891014 757.94635,86.3891014 C760.271048,86.3891014 761.63707,90.1567878 762.958064,93.8009092 C764.463882,97.9539511 766.021011,102.24836 769.447323,102.24836 C769.880847,102.24836 770.232694,101.896513 770.232694,101.462989 C770.232694,101.029464 769.880847,100.677618 769.447323,100.677618 C767.122101,100.677618 765.756079,96.9094076 764.435085,93.2652862 C762.929267,89.1122444 761.372138,84.8183594 757.94635,84.8183594 C754.520038,84.8183594 752.963433,89.112768 751.457615,93.2658098 Z" id="Fill-2" sketch:type="MSShapeGroup"></path>
        </g>
    </g>
</svg>