<?xml version="1.0" encoding="UTF-8" standalone="no"?>
<svg width="17px" height="25px" viewBox="0 0 17 25" version="1.1" xmlns="http://www.w3.org/2000/svg" xmlns:xlink="http://www.w3.org/1999/xlink" xmlns:sketch="http://www.bohemiancoding.com/sketch/ns">
    <!-- Generator: Sketch 3.3 (11970) - http://www.bohemiancoding.com/sketch -->
    <title>Group</title>
    <desc>Created with Sketch.</desc>
    <defs></defs>
    <g id="Page-1" stroke="none" stroke-width="1" fill="none" fill-rule="evenodd" sketch:type="MSPage">
        <g id="GEN/I_MENU_TEMPORAL-Copy" sketch:type="MSArtboardGroup" transform="translate(-613.000000, -81.000000)" fill="#5B98C6">
            <g id="Group" sketch:type="MSLayerGroup" transform="translate(613.000000, 81.533360)">
                <path d="M14.7520374,1.47842562 L11.9838945,1.47842562 C11.9217517,1.47842562 11.8630374,1.48999705 11.8064659,1.50671133 L11.8064659,0.699282762 C11.8064659,0.344425619 11.5184659,0.0564256192 11.1636088,0.0564256192 L5.41775165,0.0564256192 C5.06289451,0.0564256192 4.77489451,0.344425619 4.77489451,0.699282762 L4.77489451,1.50671133 C4.71832308,1.48999705 4.6596088,1.47842562 4.59746594,1.47842562 L1.82889451,1.47842562 C1.02189451,1.47842562 0.365751653,2.13499705 0.365751653,2.94156848 L0.365751653,22.045997 C0.365751653,22.8525685 1.02189451,23.5095685 1.82889451,23.5095685 L14.7520374,23.5095685 C15.5586088,23.5095685 16.2156088,22.8525685 16.2156088,22.045997 L16.2156088,2.94156848 C16.2156088,2.13499705 15.5586088,1.47842562 14.7520374,1.47842562 L14.7520374,1.47842562 Z M6.0606088,1.3421399 L10.5203231,1.3421399 L10.5203231,3.11942562 L6.0606088,3.11942562 L6.0606088,1.3421399 Z M1.65146594,2.94156848 C1.65146594,2.84556848 1.73289451,2.7641399 1.82889451,2.7641399 L4.59746594,2.7641399 C4.6596088,2.7641399 4.71832308,2.75256848 4.77489451,2.73628276 L4.77489451,3.76271133 C4.77489451,4.11756848 5.06289451,4.40556848 5.41775165,4.40556848 L11.1636088,4.40556848 C11.5184659,4.40556848 11.8064659,4.11756848 11.8064659,3.76271133 L11.8064659,2.73628276 C11.8630374,2.75256848 11.9217517,2.7641399 11.9838945,2.7641399 L14.7520374,2.7641399 C14.8480374,2.7641399 14.9298945,2.84556848 14.9298945,2.94156848 L14.9298945,18.7635685 C14.9298945,18.859997 14.8480374,18.9414256 14.7520374,18.9414256 L1.82889451,18.9414256 C1.73289451,18.9414256 1.65146594,18.859997 1.65146594,18.7635685 L1.65146594,2.94156848 L1.65146594,2.94156848 Z M14.7520374,22.2238542 L1.82889451,22.2238542 C1.73289451,22.2238542 1.65146594,22.141997 1.65146594,22.045997 L1.65146594,20.2095685 C1.7106088,20.2168542 1.76803737,20.2271399 1.82889451,20.2271399 L14.7520374,20.2271399 C14.8128945,20.2271399 14.8707517,20.2164256 14.9298945,20.2095685 L14.9298945,22.045997 C14.9298945,22.141997 14.8480374,22.2238542 14.7520374,22.2238542 L14.7520374,22.2238542 Z" id="Fill-3" sketch:type="MSShapeGroup"></path>
                <path d="M4.08532308,7.56971133 L12.4956088,7.56971133 C12.8504659,7.56971133 13.1384659,7.28171133 13.1384659,6.92685419 C13.1384659,6.57199705 12.8504659,6.28399705 12.4956088,6.28399705 L4.08532308,6.28399705 C3.73046594,6.28399705 3.44246594,6.57199705 3.44246594,6.92685419 C3.44246594,7.28171133 3.73046594,7.56971133 4.08532308,7.56971133" id="Fill-4" sketch:type="MSShapeGroup"></path>
                <path d="M4.08532308,10.7338542 L12.4956088,10.7338542 C12.8504659,10.7338542 13.1384659,10.4458542 13.1384659,10.090997 C13.1384659,9.7361399 12.8504659,9.4481399 12.4956088,9.4481399 L4.08532308,9.4481399 C3.73046594,9.4481399 3.44246594,9.7361399 3.44246594,10.090997 C3.44246594,10.4458542 3.73046594,10.7338542 4.08532308,10.7338542" id="Fill-5" sketch:type="MSShapeGroup"></path>
                <path d="M4.08532308,13.8984256 L12.4956088,13.8984256 C12.8504659,13.8984256 13.1384659,13.6104256 13.1384659,13.2555685 C13.1384659,12.9007113 12.8504659,12.6127113 12.4956088,12.6127113 L4.08532308,12.6127113 C3.73046594,12.6127113 3.44246594,12.9007113 3.44246594,13.2555685 C3.44246594,13.6104256 3.73046594,13.8984256 4.08532308,13.8984256" id="Fill-6" sketch:type="MSShapeGroup"></path>
                <path d="M4.08532308,17.062997 L12.4956088,17.062997 C12.8504659,17.062997 13.1384659,16.774997 13.1384659,16.4201399 C13.1384659,16.0652828 12.8504659,15.7772828 12.4956088,15.7772828 L4.08532308,15.7772828 C3.73046594,15.7772828 3.44246594,16.0652828 3.44246594,16.4201399 C3.44246594,16.774997 3.73046594,17.062997 4.08532308,17.062997" id="Fill-7" sketch:type="MSShapeGroup"></path>
            </g>
        </g>
    </g>
</svg>